<mxfile host="app.diagrams.net" agent="Mozilla/5.0 (Windows NT 10.0; Win64; x64) AppleWebKit/537.36 (KHTML, like Gecko) Chrome/128.0.0.0 Safari/537.36 OPR/114.0.0.0" version="24.9.3">
  <diagram name="Page-1" id="c4acf3e9-155e-7222-9cf6-157b1a14988f">
    <mxGraphModel grid="1" page="1" gridSize="10" guides="1" tooltips="1" connect="1" arrows="1" fold="1" pageScale="1" pageWidth="850" pageHeight="1100" background="none" math="0" shadow="0">
      <root>
        <mxCell id="0" />
        <mxCell id="1" parent="0" />
        <mxCell id="4BgDR4xKFfVx38yH7DcW-47" value="" style="group" connectable="0" vertex="1" parent="1">
          <mxGeometry x="440" y="200" width="155" height="60" as="geometry" />
        </mxCell>
        <mxCell id="4BgDR4xKFfVx38yH7DcW-13" value="" style="verticalAlign=top;align=left;spacingTop=8;spacingLeft=2;spacingRight=12;shape=cube;size=10;direction=south;fontStyle=4;html=1;whiteSpace=wrap;" vertex="1" parent="4BgDR4xKFfVx38yH7DcW-47">
          <mxGeometry width="155" height="60" as="geometry" />
        </mxCell>
        <mxCell id="4BgDR4xKFfVx38yH7DcW-14" value="&amp;lt;&amp;lt; device&amp;gt;&amp;gt;" style="text;html=1;align=center;verticalAlign=middle;resizable=0;points=[];autosize=1;strokeColor=none;fillColor=none;" vertex="1" parent="4BgDR4xKFfVx38yH7DcW-47">
          <mxGeometry x="30.13888888888889" y="10" width="90" height="30" as="geometry" />
        </mxCell>
        <mxCell id="4BgDR4xKFfVx38yH7DcW-15" value="Usuario Empleado" style="text;html=1;align=center;verticalAlign=middle;resizable=0;points=[];autosize=1;strokeColor=none;fillColor=none;" vertex="1" parent="4BgDR4xKFfVx38yH7DcW-47">
          <mxGeometry x="25.833333333333336" y="30" width="120" height="30" as="geometry" />
        </mxCell>
        <mxCell id="4BgDR4xKFfVx38yH7DcW-48" value="" style="group" connectable="0" vertex="1" parent="1">
          <mxGeometry x="350" y="100" width="120" height="60" as="geometry" />
        </mxCell>
        <mxCell id="4BgDR4xKFfVx38yH7DcW-7" value="" style="verticalAlign=top;align=left;spacingTop=8;spacingLeft=2;spacingRight=12;shape=cube;size=10;direction=south;fontStyle=4;html=1;whiteSpace=wrap;" vertex="1" parent="4BgDR4xKFfVx38yH7DcW-48">
          <mxGeometry width="120" height="60" as="geometry" />
        </mxCell>
        <mxCell id="4BgDR4xKFfVx38yH7DcW-8" value="&amp;lt;&amp;lt; device&amp;gt;&amp;gt;" style="text;html=1;align=center;verticalAlign=middle;resizable=0;points=[];autosize=1;strokeColor=none;fillColor=none;" vertex="1" parent="4BgDR4xKFfVx38yH7DcW-48">
          <mxGeometry x="10" y="10" width="90" height="30" as="geometry" />
        </mxCell>
        <mxCell id="4BgDR4xKFfVx38yH7DcW-11" value="Navegador" style="text;html=1;align=center;verticalAlign=middle;resizable=0;points=[];autosize=1;strokeColor=none;fillColor=none;" vertex="1" parent="4BgDR4xKFfVx38yH7DcW-48">
          <mxGeometry x="15" y="30" width="80" height="30" as="geometry" />
        </mxCell>
        <mxCell id="4BgDR4xKFfVx38yH7DcW-49" value="" style="group" connectable="0" vertex="1" parent="1">
          <mxGeometry x="210" y="200" width="170" height="60" as="geometry" />
        </mxCell>
        <mxCell id="4BgDR4xKFfVx38yH7DcW-19" value="" style="verticalAlign=top;align=left;spacingTop=8;spacingLeft=2;spacingRight=12;shape=cube;size=10;direction=south;fontStyle=4;html=1;whiteSpace=wrap;" vertex="1" parent="4BgDR4xKFfVx38yH7DcW-49">
          <mxGeometry width="170" height="60" as="geometry" />
        </mxCell>
        <mxCell id="4BgDR4xKFfVx38yH7DcW-20" value="&amp;lt;&amp;lt; device&amp;gt;&amp;gt;" style="text;html=1;align=center;verticalAlign=middle;resizable=0;points=[];autosize=1;strokeColor=none;fillColor=none;" vertex="1" parent="4BgDR4xKFfVx38yH7DcW-49">
          <mxGeometry x="35" y="10" width="90" height="30" as="geometry" />
        </mxCell>
        <mxCell id="4BgDR4xKFfVx38yH7DcW-21" value="Usuario Administrador" style="text;html=1;align=center;verticalAlign=middle;resizable=0;points=[];autosize=1;strokeColor=none;fillColor=none;" vertex="1" parent="4BgDR4xKFfVx38yH7DcW-49">
          <mxGeometry x="10" y="30" width="140" height="30" as="geometry" />
        </mxCell>
        <mxCell id="4BgDR4xKFfVx38yH7DcW-50" value="" style="group" connectable="0" vertex="1" parent="1">
          <mxGeometry x="340" y="300" width="120" height="60" as="geometry" />
        </mxCell>
        <mxCell id="4BgDR4xKFfVx38yH7DcW-22" value="" style="verticalAlign=top;align=left;spacingTop=8;spacingLeft=2;spacingRight=12;shape=cube;size=10;direction=south;fontStyle=4;html=1;whiteSpace=wrap;" vertex="1" parent="4BgDR4xKFfVx38yH7DcW-50">
          <mxGeometry width="120" height="60" as="geometry" />
        </mxCell>
        <mxCell id="4BgDR4xKFfVx38yH7DcW-23" value="&amp;lt;&amp;lt; Redes&amp;gt;&amp;gt;" style="text;html=1;align=center;verticalAlign=middle;resizable=0;points=[];autosize=1;strokeColor=none;fillColor=none;" vertex="1" parent="4BgDR4xKFfVx38yH7DcW-50">
          <mxGeometry x="10" y="10" width="90" height="30" as="geometry" />
        </mxCell>
        <mxCell id="4BgDR4xKFfVx38yH7DcW-24" value="Navegador" style="text;html=1;align=center;verticalAlign=middle;resizable=0;points=[];autosize=1;strokeColor=none;fillColor=none;" vertex="1" parent="4BgDR4xKFfVx38yH7DcW-50">
          <mxGeometry x="15" y="30" width="80" height="30" as="geometry" />
        </mxCell>
        <mxCell id="4BgDR4xKFfVx38yH7DcW-51" value="" style="group" connectable="0" vertex="1" parent="1">
          <mxGeometry x="250" y="400" width="330" height="320" as="geometry" />
        </mxCell>
        <mxCell id="4BgDR4xKFfVx38yH7DcW-4" value="" style="verticalAlign=top;align=left;spacingTop=8;spacingLeft=2;spacingRight=12;shape=cube;size=10;direction=south;fontStyle=4;html=1;whiteSpace=wrap;" vertex="1" parent="4BgDR4xKFfVx38yH7DcW-51">
          <mxGeometry width="330" height="320" as="geometry" />
        </mxCell>
        <mxCell id="4BgDR4xKFfVx38yH7DcW-10" value="&amp;lt;&amp;lt; device&amp;gt;&amp;gt;" style="text;html=1;align=center;verticalAlign=middle;resizable=0;points=[];autosize=1;strokeColor=none;fillColor=none;" vertex="1" parent="4BgDR4xKFfVx38yH7DcW-51">
          <mxGeometry x="110" y="3" width="90" height="30" as="geometry" />
        </mxCell>
        <mxCell id="4BgDR4xKFfVx38yH7DcW-26" value="Servidor Web" style="text;html=1;align=center;verticalAlign=middle;resizable=0;points=[];autosize=1;strokeColor=none;fillColor=none;" vertex="1" parent="4BgDR4xKFfVx38yH7DcW-51">
          <mxGeometry x="105" y="20" width="100" height="30" as="geometry" />
        </mxCell>
        <mxCell id="4BgDR4xKFfVx38yH7DcW-27" value="(Django)" style="text;html=1;align=center;verticalAlign=middle;resizable=0;points=[];autosize=1;strokeColor=none;fillColor=none;" vertex="1" parent="4BgDR4xKFfVx38yH7DcW-51">
          <mxGeometry x="120" y="35" width="70" height="30" as="geometry" />
        </mxCell>
        <mxCell id="4BgDR4xKFfVx38yH7DcW-32" value="&amp;lt;&amp;lt;Artefacto&amp;gt;&amp;gt;&lt;div&gt;Gestión de categorías&lt;/div&gt;" style="shape=module;align=left;spacingLeft=20;align=center;verticalAlign=top;whiteSpace=wrap;html=1;" vertex="1" parent="4BgDR4xKFfVx38yH7DcW-51">
          <mxGeometry x="20" y="70" width="110" height="60" as="geometry" />
        </mxCell>
        <mxCell id="4BgDR4xKFfVx38yH7DcW-37" value="&amp;lt;&amp;lt;Artefacto&amp;gt;&amp;gt;&lt;div&gt;Gestión de Empleados&lt;/div&gt;" style="shape=module;align=left;spacingLeft=20;align=center;verticalAlign=top;whiteSpace=wrap;html=1;" vertex="1" parent="4BgDR4xKFfVx38yH7DcW-51">
          <mxGeometry x="182.5" y="70" width="120" height="60" as="geometry" />
        </mxCell>
        <mxCell id="4BgDR4xKFfVx38yH7DcW-38" value="&amp;lt;&amp;lt;Artefacto&amp;gt;&amp;gt;&lt;div&gt;Gestión de Productos&lt;/div&gt;" style="shape=module;align=left;spacingLeft=20;align=center;verticalAlign=top;whiteSpace=wrap;html=1;" vertex="1" parent="4BgDR4xKFfVx38yH7DcW-51">
          <mxGeometry x="20" y="150" width="110" height="60" as="geometry" />
        </mxCell>
        <mxCell id="4BgDR4xKFfVx38yH7DcW-39" value="&amp;lt;&amp;lt;Artefacto&amp;gt;&amp;gt;&lt;div&gt;Gestión de Proveedores&lt;/div&gt;" style="shape=module;align=left;spacingLeft=20;align=center;verticalAlign=top;whiteSpace=wrap;html=1;" vertex="1" parent="4BgDR4xKFfVx38yH7DcW-51">
          <mxGeometry x="20" y="230" width="110" height="60" as="geometry" />
        </mxCell>
        <mxCell id="4BgDR4xKFfVx38yH7DcW-40" value="&amp;lt;&amp;lt;Artefacto&amp;gt;&amp;gt;&lt;div&gt;Dashboard&lt;/div&gt;" style="shape=module;align=left;spacingLeft=20;align=center;verticalAlign=top;whiteSpace=wrap;html=1;" vertex="1" parent="4BgDR4xKFfVx38yH7DcW-51">
          <mxGeometry x="185" y="150" width="115" height="50" as="geometry" />
        </mxCell>
        <mxCell id="4BgDR4xKFfVx38yH7DcW-41" value="&amp;lt;&amp;lt;Artefacto&amp;gt;&amp;gt;&lt;div&gt;Configuración de cuentas&lt;/div&gt;" style="shape=module;align=left;spacingLeft=20;align=center;verticalAlign=top;whiteSpace=wrap;html=1;" vertex="1" parent="4BgDR4xKFfVx38yH7DcW-51">
          <mxGeometry x="185" y="230" width="115" height="60" as="geometry" />
        </mxCell>
        <mxCell id="4BgDR4xKFfVx38yH7DcW-52" value="" style="group" connectable="0" vertex="1" parent="1">
          <mxGeometry x="640" y="490" width="170" height="160" as="geometry" />
        </mxCell>
        <mxCell id="4BgDR4xKFfVx38yH7DcW-28" value="" style="verticalAlign=top;align=left;spacingTop=8;spacingLeft=2;spacingRight=12;shape=cube;size=10;direction=south;fontStyle=4;html=1;whiteSpace=wrap;" vertex="1" parent="4BgDR4xKFfVx38yH7DcW-52">
          <mxGeometry width="170" height="160" as="geometry" />
        </mxCell>
        <mxCell id="4BgDR4xKFfVx38yH7DcW-29" value="&amp;lt;&amp;lt; device&amp;gt;&amp;gt;" style="text;html=1;align=center;verticalAlign=middle;resizable=0;points=[];autosize=1;strokeColor=none;fillColor=none;" vertex="1" parent="4BgDR4xKFfVx38yH7DcW-52">
          <mxGeometry x="40" y="10" width="90" height="30" as="geometry" />
        </mxCell>
        <mxCell id="4BgDR4xKFfVx38yH7DcW-30" value="DB SERVER" style="text;html=1;align=center;verticalAlign=middle;resizable=0;points=[];autosize=1;strokeColor=none;fillColor=none;" vertex="1" parent="4BgDR4xKFfVx38yH7DcW-52">
          <mxGeometry x="40" y="30" width="90" height="30" as="geometry" />
        </mxCell>
        <mxCell id="4BgDR4xKFfVx38yH7DcW-44" value="&amp;lt;&amp;lt;Artefacto&amp;gt;&amp;gt;&lt;div&gt;PostgreSQL&lt;/div&gt;" style="shape=module;align=left;spacingLeft=20;align=center;verticalAlign=top;whiteSpace=wrap;html=1;" vertex="1" parent="4BgDR4xKFfVx38yH7DcW-52">
          <mxGeometry x="30" y="70" width="100" height="50" as="geometry" />
        </mxCell>
        <mxCell id="4BgDR4xKFfVx38yH7DcW-53" value="" style="edgeStyle=orthogonalEdgeStyle;rounded=0;orthogonalLoop=1;jettySize=auto;html=1;" edge="1" parent="1" source="4BgDR4xKFfVx38yH7DcW-11" target="4BgDR4xKFfVx38yH7DcW-19">
          <mxGeometry relative="1" as="geometry" />
        </mxCell>
        <mxCell id="4BgDR4xKFfVx38yH7DcW-54" value="" style="edgeStyle=orthogonalEdgeStyle;rounded=0;orthogonalLoop=1;jettySize=auto;html=1;entryX=0;entryY=0;entryDx=0;entryDy=72.5;entryPerimeter=0;" edge="1" parent="1" source="4BgDR4xKFfVx38yH7DcW-11" target="4BgDR4xKFfVx38yH7DcW-13">
          <mxGeometry relative="1" as="geometry">
            <Array as="points">
              <mxPoint x="405" y="180" />
              <mxPoint x="523" y="180" />
              <mxPoint x="523" y="200" />
            </Array>
          </mxGeometry>
        </mxCell>
        <mxCell id="4BgDR4xKFfVx38yH7DcW-56" value="" style="endArrow=classic;html=1;rounded=0;exitX=0;exitY=0;exitDx=60;exitDy=90;exitPerimeter=0;entryX=0;entryY=0;entryDx=35;entryDy=120;entryPerimeter=0;" edge="1" parent="1" source="4BgDR4xKFfVx38yH7DcW-19" target="4BgDR4xKFfVx38yH7DcW-22">
          <mxGeometry width="50" height="50" relative="1" as="geometry">
            <mxPoint x="290" y="280" as="sourcePoint" />
            <mxPoint x="520" y="250" as="targetPoint" />
            <Array as="points">
              <mxPoint x="290" y="280" />
              <mxPoint x="290" y="335" />
            </Array>
          </mxGeometry>
        </mxCell>
        <mxCell id="4BgDR4xKFfVx38yH7DcW-57" value="" style="endArrow=classic;html=1;rounded=0;exitX=0;exitY=0;exitDx=60;exitDy=82.5;exitPerimeter=0;entryX=0.506;entryY=-0.011;entryDx=0;entryDy=0;entryPerimeter=0;" edge="1" parent="1">
          <mxGeometry width="50" height="50" relative="1" as="geometry">
            <mxPoint x="511.18" y="260" as="sourcePoint" />
            <mxPoint x="460.00000000000006" y="330.35999999999996" as="targetPoint" />
            <Array as="points">
              <mxPoint x="510" y="330" />
            </Array>
          </mxGeometry>
        </mxCell>
        <mxCell id="4BgDR4xKFfVx38yH7DcW-58" value="" style="edgeStyle=orthogonalEdgeStyle;rounded=0;orthogonalLoop=1;jettySize=auto;html=1;entryX=0;entryY=0;entryDx=0;entryDy=160;entryPerimeter=0;" edge="1" parent="1" source="4BgDR4xKFfVx38yH7DcW-24" target="4BgDR4xKFfVx38yH7DcW-4">
          <mxGeometry relative="1" as="geometry" />
        </mxCell>
        <mxCell id="4BgDR4xKFfVx38yH7DcW-59" value="" style="edgeStyle=orthogonalEdgeStyle;rounded=0;orthogonalLoop=1;jettySize=auto;html=1;entryX=0;entryY=0;entryDx=85;entryDy=170;entryPerimeter=0;" edge="1" parent="1" source="4BgDR4xKFfVx38yH7DcW-4" target="4BgDR4xKFfVx38yH7DcW-28">
          <mxGeometry relative="1" as="geometry" />
        </mxCell>
      </root>
    </mxGraphModel>
  </diagram>
</mxfile>
